# xmcd
#
# Track frame offsets:
#	150
#	15787
#	38005
#	58727
#	72277
#	93822
#	118002
#	131842
#	150272
#	167077
#	180302
#
# Disc length: 2678 seconds
#
# Revision: 1
# Processed by: cddbd v1.5.2PL0 Copyright (c) Steve Scherf et al.
# Submitted via: audiograbber 1.83.01
#
DISCID=7c0a740b
DTITLE=David Gillis - When You've Got a Dream
DYEAR=2001
DGENRE=Jazz
TTITLE0=When You've Got a Dream
TTITLE1=Only Only
TTITLE2=All My Life
TTITLE3=She's so Fey
TTITLE4=Talk to Me
TTITLE5=People Look East
TTITLE6=All I Need
TTITLE7=Spiderman - The Chase Medley
TTITLE8=Slam the Door
TTITLE9=Come to Me
TTITLE10=Twirl Twirl Little Girl
EXTD=YEAR: 2001
EXTT0=
EXTT1=
EXTT2=
EXTT3=
EXTT4=
EXTT5=
EXTT6=
EXTT7=
EXTT8=
EXTT9=
EXTT10=
PLAYORDER=
